<?xml version="1.0" encoding="UTF-8" standalone="no"?>
<svg
   xmlns:dc="http://purl.org/dc/elements/1.1/"
   xmlns:cc="http://creativecommons.org/ns#"
   xmlns:rdf="http://www.w3.org/1999/02/22-rdf-syntax-ns#"
   xmlns:svg="http://www.w3.org/2000/svg"
   xmlns="http://www.w3.org/2000/svg"
   xmlns:sodipodi="http://sodipodi.sourceforge.net/DTD/sodipodi-0.dtd"
   xmlns:inkscape="http://www.inkscape.org/namespaces/inkscape"
   version="1.1"
   x="0px"
   y="0px"
   viewBox="0 0 100 125"
   style="enable-background:new 0 0 100 100;"
   xml:space="preserve"
   id="svg3390"
   inkscape:version="0.91 r13725"
   sodipodi:docname="bgg.svg"><metadata
     id="metadata3404"><rdf:RDF><cc:Work
         rdf:about=""><dc:format>image/svg+xml</dc:format><dc:type
           rdf:resource="http://purl.org/dc/dcmitype/StillImage" /></cc:Work></rdf:RDF></metadata><defs
     id="defs3402" /><sodipodi:namedview
     pagecolor="#ffffff"
     bordercolor="#666666"
     borderopacity="1"
     objecttolerance="10"
     gridtolerance="10"
     guidetolerance="10"
     inkscape:pageopacity="0"
     inkscape:pageshadow="2"
     inkscape:window-width="1108"
     inkscape:window-height="667"
     id="namedview3400"
     showgrid="false"
     inkscape:zoom="3.764006"
     inkscape:cx="50"
     inkscape:cy="74.258318"
     inkscape:window-x="0"
     inkscape:window-y="0"
     inkscape:window-maximized="0"
     inkscape:current-layer="svg3390" /><circle
     style="fill:#ffb380;fill-rule:evenodd;stroke:#000000;stroke-width:1px;stroke-linecap:butt;stroke-linejoin:miter;stroke-opacity:1"
     id="path3410"
     cx="42.625069"
     cy="60.755714"
     r="38.655624"
     inkscape:export-xdpi="124.12"
     inkscape:export-ydpi="124.12" /><path
     d="m 69.772492,56.649461 c 0.31387,-8.091934 -17.569371,-12.031728 -18.344283,-12.954033 -0.386099,-0.458799 0.896008,-12.35877 -8.80315,-12.349947 -9.699157,-0.0088 -8.417592,11.891148 -8.803691,12.349947 -0.774912,0.922305 -18.657072,4.862099 -18.34374,12.954033 0.312788,8.09252 9.802335,3.936266 11.826227,6.317907 1.770296,2.084596 -8.297039,15.428021 -9.423295,23.90111 -0.367092,2.761622 0.349715,3.297472 2.827585,3.297472 4.494163,0 8.784686,-0.003 12.735813,-0.003 1.784958,0 2.419766,-1.11112 3.340754,-2.642212 2.038557,-3.389235 4.50068,-8.837188 5.840347,-8.8366 1.339127,-5.88e-4 3.801793,5.447365 5.840349,8.836012 0.920987,1.53168 1.555253,2.64222 3.34021,2.64222 3.950584,0 8.241651,0.003 12.735813,0.003 2.477872,0 3.195221,-0.53586 2.827586,-3.297481 -1.125711,-8.473088 -11.192505,-21.816513 -9.423295,-23.901109 2.023894,-2.381053 11.51453,1.775201 11.82677,-6.317319 z"
     id="path3394"
     inkscape:connector-curvature="0"
     style="clip-rule:evenodd;fill-rule:evenodd"
     inkscape:export-xdpi="124.12"
     inkscape:export-ydpi="124.12" /><path
     d="m 53.269342,55.735266 c -4.171187,-7.682249 -16.378213,-9.370762 -16.378213,-9.370762 0,0 5.636441,6.409621 -1.567433,11.471346 -4.555062,3.199781 -6.362682,7.35308 -4.409245,11.895209 1.494347,3.476921 4.650852,4.890376 8.056062,5.415868 -0.86709,-1.71869 -1.091312,-4.197697 -0.446672,-6.745382 0.06705,-0.265001 0.141914,-0.523065 0.224578,-0.775579 0.95756,1.506759 2.520025,2.335754 4.052689,1.95525 2.09464,-0.521678 3.324319,-3.097459 2.747441,-5.751629 -0.131624,-0.606311 -0.353719,-1.15435 -0.631159,-1.648279 0.08266,0.017 0.167457,0.02705 0.250477,0.05134 2.612978,0.759275 3.876716,4.753712 2.820171,8.92158 -0.342366,1.350325 -0.886603,2.550112 -1.55537,3.533807 4.488718,-1.472767 7.477412,-5.163008 8.303348,-8.452625 0.862123,-3.437034 0.205064,-7.419678 -1.466674,-10.50014 z m -0.397358,9.962508 C 52.524652,67.085212 51.598668,68.7158 50.160731,70.108789 50.419722,68.226034 50.29271,66.3686 49.782177,64.75154 49.047067,62.427926 47.483182,60.996089 45.673788,60.236119 43.636623,59.380416 41.19394,59.424814 41.19394,59.424814 l 2.069806,3.822048 c 0.190517,0.342004 0.328528,0.695801 0.404807,1.051332 0.173134,0.796737 0.09721,1.621916 -0.210032,2.263954 -0.147944,0.310439 -0.487827,0.852928 -1.09557,1.004158 -0.100759,0.02497 -0.207194,0.0385 -0.3115,0.0385 -0.604906,0 -1.259481,-0.438432 -1.708281,-1.143597 l -2.158501,-3.394717 -1.258771,3.879974 c -0.09686,0.297951 -0.184843,0.601455 -0.263959,0.913975 -0.382102,1.506759 -0.514436,3.020108 -0.405518,4.440846 -1.744823,-0.730834 -2.909577,-1.856394 -3.588632,-3.434606 -1.465965,-3.409631 -0.215708,-6.539 3.714226,-9.300351 2.682516,-1.885529 4.192118,-4.197697 4.486943,-6.87268 0.132334,-1.206725 -0.0085,-2.344078 -0.282052,-3.356215 3.625529,1.0881 8.765983,3.297943 11.012826,7.438408 1.481574,2.727706 1.968692,6.146356 1.272252,8.921928 z"
     id="path3392"
     inkscape:connector-curvature="0"
     style="fill:#ff6600"
     inkscape:export-xdpi="124.12"
     inkscape:export-ydpi="124.12" /><text
     x="0"
     y="115"
     fill="#000000"
     font-size="5px"
     font-weight="bold"
     font-family="'Helvetica Neue', Helvetica, Arial-Unicode, Arial, Sans-serif"
     id="text3396">Created by Mike Rowe</text>
<text
     x="0"
     y="120"
     fill="#000000"
     font-size="5px"
     font-weight="bold"
     font-family="'Helvetica Neue', Helvetica, Arial-Unicode, Arial, Sans-serif"
     id="text3398">from the Noun Project</text>
</svg>